<?xml version="1.0" encoding="UTF-8"?>
<svg id="Layer_1" data-name="Layer 1" xmlns="http://www.w3.org/2000/svg" version="1.1" viewBox="0 0 1390.4 430.8">
  <defs>
    <style>
      .cls-1 {
        display: none;
        fill: #000;
      }

      .cls-1, .cls-2 {
        stroke-width: 0px;
      }

      .cls-2 {
        fill: #fff;
      }
    </style>
  </defs>
  <rect class="cls-1" x="-304.8" y="-784.6" width="2000" height="2000"/>
  <g>
    <g>
      <path class="cls-2" d="M41.3,72.8v181.8h50.9V72.8c0-2.9,2.4-5.3,5.3-5.3h231.6V16.5H97.6c-31,0-56.3,25.2-56.3,56.3Z"/>
      <polygon class="cls-2" points="144.5 186.8 280.4 186.8 280.4 135.9 92.4 135.9 144.5 186.8"/>
      <path class="cls-2" d="M431.4,196.3V17h-50.9v179.4c0,30.5,24.8,55.4,55.4,55.4h232v-50.9h-232c-2.5,0-4.5-2-4.5-4.5Z"/>
      <path class="cls-2" d="M974.8,16.1h-221.9c-17.7,0-32,14.4-32,32v176.4c0,17.7,14.4,32,32,32h221.9c17.7,0,32-14.4,32-32V48.2c0-17.7-14.4-32-32-32ZM955.9,205.6h-184V67.1h184v138.6Z"/>
      <polygon class="cls-2" points="1297.9 17 1297.9 135.9 1115.7 135.9 1115.7 17 1064.8 17 1064.8 254.6 1115.7 254.6 1115.7 136.4 1167.3 186.8 1297.9 186.8 1297.9 254.6 1348.8 254.6 1348.8 17 1297.9 17"/>
    </g>
    <g>
      <path class="cls-2" d="M121.6,317.7c8.1,0,14.6,2.5,19.4,7.7,4.8,5.1,7.2,12.3,7.2,21.5v39.9h-17.6v-36.2c0-11-4.3-16.5-12.8-16.5s-8.1,1.6-10.6,4.9c-2.5,3.2-3.7,7.8-3.7,13.7v34.2h-17.7v-36.2c0-11-4.2-16.5-12.6-16.5s-8.3,1.7-10.8,5c-2.5,3.3-3.7,8-3.7,14v33.7h-17.5v-67.2h17.5v8c5.1-6.5,11.7-9.9,19.9-9.9s15.9,3.4,20.2,10.1c5.3-6.7,12.9-10.1,22.7-10.1h0Z"/>
      <path class="cls-2" d="M196.5,388.7c-10.4,0-18.9-3.4-25.7-10.2-6.8-6.8-10.2-15.2-10.2-25.4s3.4-18.5,10.2-25.3c6.8-6.7,15.3-10.1,25.7-10.1s18.9,3.4,25.7,10.1c6.8,6.7,10.2,15.2,10.2,25.3s-3.4,18.5-10.2,25.4c-6.8,6.8-15.3,10.2-25.6,10.2h-.1ZM210.1,367.2c3.5-3.7,5.2-8.4,5.2-14s-1.7-10.3-5.2-14-8-5.5-13.6-5.5-10.1,1.8-13.6,5.5-5.2,8.4-5.2,14,1.7,10.3,5.2,14c3.5,3.7,8,5.5,13.6,5.5s10.1-1.8,13.6-5.5Z"/>
      <path class="cls-2" d="M263,329.6c4.4-8.7,11.8-12.3,22.1-10.9v16.5c-7.3-1.2-12.8,0-16.5,3.7-3.7,3.6-5.6,9.9-5.6,18.7v29.2h-17.5v-67.2h17.5v9.9h0Z"/>
      <path class="cls-2" d="M325.2,388.7c-10.8,0-19.6-3.2-26.3-9.7-6.7-6.5-10.1-15-10.1-25.7s3.2-18.7,9.7-25.4c6.5-6.7,15-10.1,25.4-10.1s19.2,3.2,25.4,9.8c6.2,6.5,9.3,14.8,9.3,24.7s-.1,4.8-.4,6.2h-52.1c.6,4.6,2.5,8.3,5.8,11.1,3.3,2.8,7.8,4.1,13.7,4.1s13.2-3,16.3-8.9l15.8,4.7c-2.2,5.1-6.1,9.5-11.7,13.4-5.6,3.8-12.5,5.8-20.6,5.8h-.2ZM341.4,347.6c-.5-4.2-2.3-7.8-5.4-10.6-3.2-2.9-7.3-4.3-12.3-4.3s-8.9,1.5-12.1,4.4c-3.2,2.9-5.1,6.4-5.6,10.5h35.5Z"/>
      <path class="cls-2" d="M447,384.7c-5.3,2.1-10.6,3.2-15.7,3.2-7.4,0-13-2.1-16.8-6.4-3.8-4.2-5.6-10.1-5.6-17.6v-28.9h-11.3v-15.4h11.3v-21.8h17.6v21.8h19.6v15.4h-19.6v28.9c0,5.6,2.7,8.5,8.2,8.5s5.5-.6,8-1.9l4.3,14.2Z"/>
      <path class="cls-2" d="M497.5,317.8c8.6,0,15.2,2.7,19.7,8,4.5,5.3,6.8,12.6,6.8,21.8v39.3h-17.6v-36c0-5.3-1.2-9.3-3.6-12.3-2.4-3-6-4.5-10.7-4.5s-8.7,1.8-11.7,5.3c-3,3.6-4.5,8.3-4.5,14.2v33.2h-17.5v-96.9h17.5v38.3c5.4-6.9,12.6-10.4,21.6-10.4h0Z"/>
      <path class="cls-2" d="M569.5,388.7c-9.4,0-17.2-3.4-23.6-10.2-6.3-6.8-9.5-15.2-9.5-25.3s3.2-18.7,9.5-25.4c6.3-6.7,14.2-10.1,23.6-10.1s16.4,3.3,21.6,10v-8.1h17.7v67.2h-17.7v-8.2c-5.2,6.7-12.4,10.1-21.6,10.1h0ZM572.5,372.9c5.4,0,9.9-1.9,13.6-5.6,3.7-3.8,5.5-8.5,5.5-14.3s-1.8-10.3-5.5-14c-3.7-3.7-8.2-5.6-13.6-5.6s-10,1.8-13.6,5.5c-3.6,3.7-5.3,8.4-5.3,14.2s1.7,10.6,5.3,14.3c3.6,3.7,8.1,5.6,13.6,5.6h0Z"/>
      <path class="cls-2" d="M665.1,317.8c8.6,0,15.2,2.7,19.7,8,4.5,5.3,6.8,12.6,6.8,21.8v39.3h-17.6v-36c0-5.3-1.2-9.3-3.6-12.3-2.4-3-6-4.5-10.7-4.5s-8.7,1.8-11.7,5.3c-3,3.6-4.5,8.3-4.5,14.2v33.2h-17.5v-67.2h17.5v8.5c5.4-6.9,12.6-10.4,21.6-10.4h0Z"/>
      <path class="cls-2" d="M779.7,317.8c8.6,0,15.2,2.7,19.7,8,4.5,5.3,6.8,12.6,6.8,21.8v39.3h-17.6v-36c0-5.3-1.2-9.3-3.6-12.3-2.4-3-6-4.5-10.7-4.5s-8.7,1.8-11.7,5.3c-3,3.6-4.5,8.3-4.5,14.2v33.2h-17.5v-96.9h17.5v38.3c5.4-6.9,12.6-10.4,21.6-10.4h0Z"/>
      <path class="cls-2" d="M887.8,319.6l-40.3,95.1h-18l12.2-29.4-30.4-65.7h19.2l19.9,45.4,18.7-45.4h18.7Z"/>
      <path class="cls-2" d="M962.9,289.9v96.9h-17.7v-8.2c-5.2,6.7-12.4,10.1-21.6,10.1s-17.2-3.4-23.6-10.2c-6.3-6.8-9.5-15.2-9.5-25.3s3.2-18.7,9.5-25.4c6.3-6.7,14.2-10.1,23.6-10.1s16.4,3.3,21.6,10v-37.9h17.6ZM926.7,372.9c5.4,0,9.9-1.9,13.6-5.6,3.7-3.8,5.5-8.5,5.5-14.3s-1.8-10.3-5.5-14c-3.7-3.7-8.2-5.6-13.6-5.6s-10,1.8-13.6,5.5c-3.6,3.7-5.3,8.4-5.3,14.2s1.7,10.6,5.3,14.3c3.6,3.7,8.1,5.6,13.6,5.6h0Z"/>
      <path class="cls-2" d="M997.6,329.6c4.4-8.7,11.8-12.3,22.1-10.9v16.5c-7.3-1.2-12.8,0-16.5,3.7-3.7,3.6-5.6,9.9-5.6,18.7v29.2h-17.5v-67.2h17.5v9.9h0Z"/>
      <path class="cls-2" d="M1056.5,388.7c-9.4,0-17.2-3.4-23.6-10.2-6.3-6.8-9.5-15.2-9.5-25.3s3.2-18.7,9.5-25.4c6.3-6.7,14.2-10.1,23.6-10.1s16.4,3.3,21.6,10v-8.1h17.7v67.2h-17.7v-8.2c-5.2,6.7-12.4,10.1-21.6,10.1h0ZM1059.5,372.9c5.4,0,9.9-1.9,13.6-5.6,3.7-3.8,5.5-8.5,5.5-14.3s-1.8-10.3-5.5-14c-3.7-3.7-8.2-5.6-13.6-5.6s-10,1.8-13.6,5.5c-3.6,3.7-5.3,8.4-5.3,14.2s1.7,10.6,5.3,14.3c3.6,3.7,8.1,5.6,13.6,5.6h0Z"/>
      <path class="cls-2" d="M1155.6,384.7c-5.3,2.1-10.6,3.2-15.7,3.2-7.4,0-13-2.1-16.8-6.4-3.8-4.2-5.6-10.1-5.6-17.6v-28.9h-11.3v-15.4h11.3v-21.8h17.6v21.8h19.6v15.4h-19.6v28.9c0,5.6,2.7,8.5,8.2,8.5s5.5-.6,8-1.9l4.3,14.2Z"/>
      <path class="cls-2" d="M1176.5,310.3c-2.9,0-5.4-1-7.4-3-2-2-3-4.5-3-7.4s1-5.3,3-7.2c2-1.9,4.5-2.9,7.4-2.9s5.4,1,7.4,2.9c2,1.9,3,4.3,3,7.2s-1,5.4-3,7.3-4.5,2.9-7.4,2.9h0ZM1167.4,319.7h17.6v67.2h-17.6v-67.2Z"/>
      <path class="cls-2" d="M1234.3,388.7c-10.4,0-18.9-3.4-25.7-10.2-6.8-6.8-10.2-15.2-10.2-25.4s3.4-18.5,10.2-25.3c6.8-6.7,15.3-10.1,25.7-10.1s18.9,3.4,25.7,10.1c6.8,6.7,10.2,15.2,10.2,25.3s-3.4,18.5-10.2,25.4c-6.8,6.8-15.3,10.2-25.6,10.2h-.1ZM1247.9,367.2c3.5-3.7,5.2-8.4,5.2-14s-1.7-10.3-5.2-14-8-5.5-13.6-5.5-10.1,1.8-13.6,5.5-5.2,8.4-5.2,14,1.7,10.3,5.2,14c3.5,3.7,8,5.5,13.6,5.5s10.1-1.8,13.6-5.5Z"/>
      <path class="cls-2" d="M1322.6,317.8c8.6,0,15.2,2.7,19.7,8,4.5,5.3,6.8,12.6,6.8,21.8v39.3h-17.6v-36c0-5.3-1.2-9.3-3.6-12.3-2.4-3-6-4.5-10.7-4.5s-8.7,1.8-11.7,5.3c-3,3.6-4.5,8.3-4.5,14.2v33.2h-17.5v-67.2h17.5v8.5c5.4-6.9,12.6-10.4,21.6-10.4h0Z"/>
    </g>
  </g>
</svg>